<svg xmlns="http://www.w3.org/2000/svg" version="1.1" xmlns:xlink="http://www.w3.org/1999/xlink" xmlns:svgjs="http://svgjs.com/svgjs" width="1440" height="560" preserveAspectRatio="none" viewBox="0 0 1440 560"><g mask="url(&quot;#SvgjsMask1288&quot;)" fill="none"><rect width="1440" height="560" x="0" y="0" fill="#1e3266"></rect><path d="M1464 560L0 560 L0 222.38Q94.26 196.64, 120 290.9Q165.12 264.01, 192 309.13Q193.73 238.86, 264 240.58Q284.43 189, 336 209.43Q404.91 158.34, 456 227.26Q532.39 231.65, 528 308.04Q539.15 199.19, 648 210.35Q723.32 213.67, 720 288.98Q774.28 271.26, 792 325.54Q804.17 217.71, 912 229.88Q981.52 179.41, 1032 248.93Q1119.11 216.03, 1152 303.14Q1176.65 255.79, 1224 280.44Q1276.18 212.62, 1344 264.8Q1380.49 181.3, 1464 217.79z" fill="#182f5d"></path><path d="M1512 560L0 560 L0 328.14Q50.85 258.99, 120 309.84Q177.63 295.47, 192 353.1Q257.38 298.48, 312 363.85Q326.66 306.51, 384 321.17Q411.2 276.38, 456 303.58Q531.45 259.03, 576 334.49Q643.53 330.02, 648 397.56Q714.75 344.31, 768 411.06Q782.51 353.57, 840 368.09Q867.89 323.98, 912 351.87Q953.35 273.22, 1032 314.57Q1078.88 289.44, 1104 336.32Q1141.91 254.24, 1224 292.15Q1266.02 262.17, 1296 304.2Q1344.14 280.34, 1368 328.48Q1447.1 335.58, 1440 414.67Q1418.82 321.49, 1512 300.31z" fill="#25467d"></path><path d="M1512 560L0 560 L0 503.03Q-15.16 415.87, 72 400.71Q122.12 330.83, 192 380.95Q254.29 371.24, 264 433.53Q348.75 398.28, 384 483.04Q411.79 390.83, 504 418.62Q528.54 371.16, 576 395.71Q655.43 355.14, 696 434.58Q729.92 348.5, 816 382.42Q859.63 354.05, 888 397.68Q959.67 349.36, 1008 421.03Q1106.04 399.06, 1128 497.1Q1132.28 429.38, 1200 433.67Q1215.81 377.48, 1272 393.29Q1342.62 343.91, 1392 414.53Q1457.49 360.01, 1512 425.5z" fill="#356cb1"></path><path d="M1464 560L0 560 L0 577.01Q18.45 475.46, 120 493.91Q191.96 445.88, 240 517.84Q304.64 510.49, 312 575.13Q326.45 469.58, 432 484.03Q473.74 453.76, 504 495.5Q592.88 464.38, 624 553.27Q652.56 509.83, 696 538.39Q705.26 475.65, 768 484.91Q798.13 443.04, 840 473.16Q938.45 451.61, 960 550.06Q988.24 458.29, 1080 486.53Q1148.37 434.9, 1200 503.27Q1272.08 455.35, 1320 527.42Q1369.28 504.7, 1392 553.99Q1445.78 535.77, 1464 589.56z" fill="white"></path></g><defs><mask id="SvgjsMask1288"><rect width="1440" height="560" fill="#ffffff"></rect></mask></defs></svg>